<?xml version="1.0" encoding="UTF-8"?>
<svg width="225px" height="225px" viewBox="0 0 225 225" version="1.1" xmlns="http://www.w3.org/2000/svg" xmlns:xlink="http://www.w3.org/1999/xlink">
    <!-- Generator: Sketch 42 (36781) - http://www.bohemiancoding.com/sketch -->
    <title>Idris-Square-225px</title>
    <desc>Created with Sketch.</desc>
    <defs>
        <path d="M30.8160452,1.93150685 C30.8160452,1.93150685 60.892912,14.8080581 63.9545929,41.5713709 C66.0648452,60.0178858 54.600366,74.2832591 45.1638384,95.5281371 C35.7273107,116.773015 57.6140401,140.172566 57.6140401,140.172566 L30.8160452,140.172566 C30.8160452,140.172566 22.2890867,111.463296 33.3759952,89.8331694 C44.4629038,68.2030428 56.3890983,55.7535769 57.6140401,41.5713709 C59.385197,21.0651616 30.8160452,1.93150685 30.8160452,1.93150685 Z M41.6637123,30.0758953 C26.3048514,30.8273124 11.5609756,40.0349094 11.5609756,38.7316493 C11.5609756,37.4283891 25.4749737,27.06424 36.6658672,23.8464056 C47.8567607,20.6285713 41.6637123,30.0758953 41.6637123,30.0758953 Z M41.6637123,55.1854843 C26.3048514,55.9369014 11.5609756,65.1444984 11.5609756,63.8412383 C11.5609756,62.5379782 25.4749737,52.173829 36.6658672,48.9559947 C47.8567607,45.7381603 41.6637123,55.1854843 41.6637123,55.1854843 Z M43.2799635,42.9183246 C25.1302738,43.8062802 7.70731707,54.6869717 7.70731707,53.1468987 C7.70731707,51.6068257 24.1496007,39.3594273 37.3739697,35.5568865 C50.5983386,31.7543457 43.2799635,42.9183246 43.2799635,42.9183246 Z" id="path-1"></path>
    </defs>
    <g id="Page-1" stroke="none" stroke-width="1" fill="none" fill-rule="evenodd">
        <g id="New-Square" transform="translate(-49.000000, -28.000000)">
            <rect id="Rectangle" fill="#AA0000" x="49" y="28" width="225" height="225"></rect>
            <g id="Isotype-New" transform="translate(170.000000, 98.000000)">
                <mask id="mask-2" fill="white">
                    <use xlink:href="#path-1"></use>
                </mask>
                <use id="Combined-Shape" fill="#000000" fill-rule="evenodd" xlink:href="#path-1"></use>
                <g id="Mixins/Fills/White" mask="url(#mask-2)" fill-rule="evenodd" fill="#FEFEFE">
                    <rect id="Rectangle" x="0" y="0" width="79" height="141"></rect>
                </g>
            </g>
        </g>
    </g>
</svg>