<?xml version="1.0" encoding="UTF-8"?>
<svg width="225px" height="225px" viewBox="0 0 225 225" version="1.1" xmlns="http://www.w3.org/2000/svg" xmlns:xlink="http://www.w3.org/1999/xlink">
    <!-- Generator: Sketch 42 (36781) - http://www.bohemiancoding.com/sketch -->
    <title>Idris-Old-Square-225px</title>
    <desc>Created with Sketch.</desc>
    <defs>
        <path d="M33.342728,0 C33.342728,0 74.9883152,18.4395668 77.9613066,44.4276106 C80.01043,62.3397743 56.015435,77.6992486 46.8522609,98.3287135 C37.6890868,118.958178 48.9981631,140.172566 48.9981631,140.172566 L34.5315181,135.230609 C34.5315181,135.230609 25.2729262,113.791483 36.0386737,92.7879292 C46.8044211,71.7843753 67.4891249,58.9309732 68.678583,45.1595917 C70.3984338,25.2473981 33.342728,0 33.342728,0 Z M25.8151429,21.7797256 C25.8151429,21.7797256 36.4420068,17.2985447 46.1749761,23.8635154 C55.9079454,30.4284861 55.1974952,41.5983725 55.1974952,41.5983725 C55.1974952,41.5983725 52.8641512,34.9410966 43.2387768,28.2166098 C33.6134025,21.492123 25.8151429,21.7797256 25.8151429,21.7797256 Z M3.18828854,55.4068524 C3.18828854,55.4068524 13.8151525,50.9256715 23.5481218,57.4906421 C33.2810911,64.0556128 32.5706409,75.2254992 32.5706409,75.2254992 C32.5706409,75.2254992 30.2372968,68.5682233 20.6119225,61.8437365 C10.9865482,55.1192498 3.18828854,55.4068524 3.18828854,55.4068524 Z M10.7668455,37.2384815 C10.7668455,37.2384815 23.4984987,31.8471806 35.1397301,39.6992903 C46.7809614,47.5514 45.9099504,60.942805 45.9099504,60.942805 C45.9099504,60.942805 43.1284083,52.9665326 31.616291,44.9230036 C20.1041736,36.8794746 10.7668455,37.2384815 10.7668455,37.2384815 Z" id="path-1"></path>
    </defs>
    <g id="Page-1" stroke="none" stroke-width="1" fill="none" fill-rule="evenodd">
        <g id="Square-Logo" transform="translate(-49.000000, -28.000000)">
            <rect id="Rectangle" fill="#AA0000" x="49" y="28" width="225" height="225"></rect>
            <g id="Isotype-Old" transform="translate(170.000000, 98.000000)">
                <mask id="mask-2" fill="white">
                    <use xlink:href="#path-1"></use>
                </mask>
                <use id="Combined-Shape" fill-opacity="0" fill="#D0D0D0" fill-rule="evenodd" xlink:href="#path-1"></use>
                <g id="Mixins/Fills/White" mask="url(#mask-2)" fill-rule="evenodd" fill="#FEFEFE">
                    <rect id="Rectangle" x="0" y="0" width="79" height="141"></rect>
                </g>
            </g>
        </g>
    </g>
</svg>