<?xml version="1.0" encoding="UTF-8"?>
<svg width="198px" height="78px" viewBox="0 0 198 78" version="1.1" xmlns="http://www.w3.org/2000/svg" xmlns:xlink="http://www.w3.org/1999/xlink">
    <!-- Generator: Sketch 42 (36781) - http://www.bohemiancoding.com/sketch -->
    <title>Idris-Old</title>
    <desc>Created with Sketch.</desc>
    <defs>
        <path d="M17.3044538,0 C17.3044538,0 38.9179864,9.54672605 40.4609313,23.0015289 C41.5244004,32.2752023 29.0713017,40.2272705 24.3157303,50.9077736 C19.560159,61.5882768 25.4294264,72.5716122 25.4294264,72.5716122 L17.9214208,70.0130101 C17.9214208,70.0130101 13.1163288,58.913321 18.7036154,48.0391406 C24.2909021,37.1649603 35.0260015,30.510362 35.6433152,23.3804978 C36.535896,13.0713479 17.3044538,0 17.3044538,0 Z M13.4011261,11.2635737 C13.4011261,11.2635737 18.9095465,8.94796039 23.9608344,12.3550971 C29.0121222,15.7622337 28.650195,21.5492005 28.650195,21.5492005 C28.650195,21.5492005 27.4362571,18.0985498 22.4406745,14.6088268 C17.4450918,11.1191038 13.4011261,11.2635737 13.4011261,11.2635737 Z M1.65807515,28.6733627 C1.65807515,28.6733627 7.16649552,26.3577494 12.2177834,29.7648861 C17.2690712,33.1720228 16.9071441,38.9589896 16.9071441,38.9589896 C16.9071441,38.9589896 15.6932061,35.5083388 10.6976235,32.0186158 C5.70204082,28.5288928 1.65807515,28.6733627 1.65807515,28.6733627 Z M5.59192903,19.2646012 C5.59192903,19.2646012 12.1913509,16.4786597 18.2330026,20.5538053 C24.2746543,24.6289508 23.8307556,31.566845 23.8307556,31.566845 C23.8307556,31.566845 22.3836162,27.4325301 16.4088107,23.2582809 C10.4340053,19.0840318 5.59192903,19.2646012 5.59192903,19.2646012 Z" id="path-1"></path>
    </defs>
    <g id="Page-1" stroke="none" stroke-width="1" fill="none" fill-rule="evenodd">
        <g id="Vectorized" transform="translate(-64.000000, -43.000000)">
            <g id="Isotype-Old" transform="translate(66.000000, 45.000000)">
                <mask id="mask-2" fill="white">
                    <use xlink:href="#path-1"></use>
                </mask>
                <use id="Combined-Shape" fill-opacity="0" fill="#D0D0D0" fill-rule="evenodd" xlink:href="#path-1"></use>
                <g id="Mixins/Fills/Primary" mask="url(#mask-2)" fill-rule="evenodd" fill="#AA0000">
                    <rect id="Rectangle" x="0" y="0" width="41" height="73"></rect>
                </g>
            </g>
            <text id="Idris" font-family="SortsMillGoudy-Regular, Sorts Mill Goudy" font-size="70" font-weight="normal" fill="#000000">
                <tspan x="119" y="115">Idris</tspan>
            </text>
        </g>
    </g>
</svg>